<?xml version="1.0" encoding="utf-8"?>
<!-- Generator: Adobe Illustrator 18.1.1, SVG Export Plug-In . SVG Version: 6.00 Build 0)  -->
<svg version="1.1" id="Capa_1" xmlns="http://www.w3.org/2000/svg" xmlns:xlink="http://www.w3.org/1999/xlink" x="0px" y="0px"
	 viewBox="0 0 612 792" enable-background="new 0 0 612 792" xml:space="preserve">
<g>
	<g>
		<path fill="#3A3A3A" d="M578,362H340V124c0-18.8-15.3-34-34-34c-18.8,0-34,15.2-34,34v238H34c-18.8,0-34,15.2-34,34
			c0,18.7,15.2,34,34,34h238v238c0,18.7,15.2,34,34,34c18.7,0,34-15.3,34-34V430h238c18.7,0,34-15.3,34-34
			C612,377.2,596.7,362,578,362z"/>
	</g>
</g>
</svg>
